Coordinates
version=1
nRows=14
nColumns=36
inDegrees=yes

Units are S.I. units (second, meters, Newtons, ...)
If the header above contains a line with 'inDegrees', this indicates whether rotational values are in degrees (yes) or radians (no).

endheader
time	pelvis_tilt	pelvis_list	pelvis_rotation	pelvis_tx	pelvis_ty	pelvis_tz	hip_flexion_r	hip_adduction_r	hip_rotation_r	knee_angle_r	knee_angle_r_beta	ankle_angle_r	subtalar_angle_r	mtp_angle_r	hip_flexion_l	hip_adduction_l	hip_rotation_l	knee_angle_l	knee_angle_l_beta	ankle_angle_l	subtalar_angle_l	mtp_angle_l	lumbar_extension	lumbar_bending	lumbar_rotation	arm_flex_r	arm_add_r	arm_rot_r	elbow_flex_r	pro_sup_r	arm_flex_l	arm_add_l	arm_rot_l	elbow_flex_l	pro_sup_l
      1.40833330	    -21.10320689	     -2.41808595	      1.06053602	     -0.93081779	      1.19803286	     -0.08702272	     39.78395737	      5.33612693	      6.30745666	     36.11786546	      0.63037567	     11.97377635	    -33.80226580	     -7.49999987	     40.32871138	     -1.03683747	      7.43813943	     40.14181383	      0.70060682	     25.58599577	     -5.30309634	     -7.49999987	     -8.68231489	      0.68588344	     -2.59178559	    -17.57605649	    -19.69869083	     28.74132897	      1.74894513	     65.20164003	    -29.99131088	    -23.30845373	     -8.65137326	      1.06028602	     69.71558127
      1.41250000	    -21.18381378	     -2.47237218	      0.73745396	     -0.93084752	      1.20141064	     -0.08684998	     39.85329736	      5.60065919	      6.48865787	     36.20877467	      0.63196234	     12.00339188	    -33.84763723	     -7.49999987	     40.42570267	     -1.25494072	      7.34304088	     40.27340962	      0.70290360	     25.52247399	     -5.40429798	     -7.49999987	     -8.81199333	      0.76082223	     -2.57673424	    -17.19495885	    -19.91318448	     29.09009463	      1.88937916	     64.91487896	    -29.98059751	    -22.93042040	     -8.59259819	      1.05123654	     69.22528360
      1.41666670	    -21.33244291	     -2.48009813	      0.56066396	     -0.93139422	      1.19845472	     -0.08706013	     40.14247202	      5.76843859	      6.54471380	     36.60989646	      0.63896323	     12.16507707	    -33.89099922	     -7.49999987	     40.65030520	     -1.36842650	      7.19369286	     40.50596718	      0.70696249	     25.48979847	     -5.60267655	     -7.49999987	     -8.98487789	      0.84088285	     -2.65536364	    -16.95351818	    -20.17073380	     29.70701127	      2.08028866	     63.96841793	    -29.98721637	    -22.63201680	     -8.64258584	      1.04477406	     67.65285629
      1.42083330	    -21.57715445	     -2.47072064	      0.40134507	     -0.93134672	      1.19766882	     -0.08681404	     40.63669085	      5.96955814	      6.79375177	     37.18344907	      0.64897361	     12.48524504	    -33.95477987	     -7.49999987	     40.99688261	     -1.46020059	      6.91084260	     40.87742804	      0.71344571	     25.82613781	     -5.73415293	     -7.49999987	     -8.99634186	      0.95479951	     -2.71456116	    -16.63562309	    -20.41093410	     31.06183467	      2.17282020	     63.59905408	    -29.79496681	    -22.33198249	     -8.07862296	      1.09738724	     67.23987750
      1.42500000	    -21.91205917	     -2.49736026	      0.46356923	     -0.93139820	      1.19760125	     -0.08728043	     41.15037572	      5.98589466	      6.81967059	     37.45969623	      0.65379504	     12.84044038	    -33.99930940	     -7.49999987	     41.43843209	     -1.43386735	      6.81869309	     41.16964072	      0.71854578	     25.88780598	     -5.85903038	     -7.49999987	     -9.20221722	      0.92777605	     -2.90144860	    -16.15453989	    -20.58662603	     35.19904517	      2.47697093	     64.09866674	    -29.73042131	    -22.27122193	     -4.42779023	      1.11593751	     69.15329421
      1.42916670	    -21.96059889	     -2.57656292	      0.51108608	     -0.93174934	      1.19697360	     -0.08737570	     41.36268276	      6.04870081	      6.83536338	     37.68040916	      0.65764720	     13.07854172	    -34.04747173	     -7.49999987	     41.60463601	     -1.47194286	      6.89502363	     41.38730752	      0.72234478	     25.92088745	     -5.91681595	     -7.49999987	     -9.45917950	      1.17332261	     -3.04770393	    -15.88732144	    -20.92891795	     38.56445739	      2.85393536	     61.87737166	    -29.30526808	    -21.97661762	     -3.13123414	      1.14536587	     67.40379437
      1.43333330	    -21.92910433	     -2.59815805	      0.41474454	     -0.93175819	      1.19694533	     -0.08762255	     41.43121920	      6.12306952	      6.89754651	     37.78395653	      0.65945445	     13.26312800	    -34.07917735	     -7.49999987	     41.79143608	     -1.43688355	      7.00728625	     41.77442374	      0.72910124	     25.99200377	     -6.12083197	     -7.49999987	     -9.90915951	      1.17827705	     -2.72922503	    -15.31382602	    -20.93547121	     40.35754412	      3.32401009	     61.11352535	    -28.48670776	    -21.89652223	     -2.41241205	      1.16033717	     67.37933699
      1.43750000	    -21.90665779	     -2.55365536	      0.39387972	     -0.93182080	      1.19233368	     -0.08729028	     41.73810235	      6.07466744	      6.80946523	     38.35269641	      0.66938083	     13.71813063	    -34.08218792	     -7.49999987	     42.08885948	     -1.29196312	      7.03755202	     42.50295289	      0.74181647	     26.32358439	     -6.51601973	     -7.49999987	    -10.34339015	      1.36152439	     -2.57999612	    -15.08292640	    -21.22217018	     41.18516931	      4.29546699	     60.64736835	    -27.81140266	    -21.81800631	     -1.97787198	      1.11483500	     66.98699368
      1.44166670	    -22.10633496	     -2.43577460	      0.30098285	     -0.93195100	      1.19205095	     -0.08760589	     42.25217022	      6.07150403	      6.90560075	     38.76419157	      0.67656277	     13.96327306	    -34.08545656	     -7.49999987	     42.59464715	     -1.10994885	      7.16893804	     43.08612063	      0.75199467	     26.49367774	     -6.77739731	     -7.49999987	    -10.63667492	      1.47161990	     -2.84221629	    -14.72023295	    -21.96971283	     48.13379156	      5.20623246	     57.41809392	    -27.75024415	    -21.52006518	      0.59749661	      1.20998055	     66.24328095
      1.44583330	    -22.56294035	     -2.27242597	      0.34203927	     -0.93136344	      1.19116750	     -0.08708625	     43.11028702	      5.87929228	      6.69856789	     39.42621296	      0.68811723	     14.23206694	    -34.07585381	     -7.49999987	     43.20938450	     -0.92174590	      7.16990839	     43.41269922	      0.75769454	     26.63563036	     -7.05587745	     -7.49999987	    -10.98437862	      1.02724259	     -2.64449765	    -14.48807394	    -22.02644914	     50.72574840	      6.56566845	     55.79819510	    -27.02221551	    -21.62637842	      2.28639279	      1.21688297	     65.37805811
      1.45000000	    -22.77304501	     -2.30167353	      0.48545731	     -0.93116425	      1.18742745	     -0.08709416	     43.68230112	      5.77782375	      6.37271359	     40.15255927	      0.70079436	     14.35620897	    -34.05350364	     -7.49999987	     43.67709909	     -0.85642420	      7.52518733	     44.06493918	      0.76907827	     26.79988614	     -7.34895083	     -7.49999987	    -11.31408412	      1.02226436	     -2.68361681	    -13.84591376	    -24.10004492	     71.41983729	     11.91237732	     27.50043784	    -26.41672574	    -21.71226984	      3.36587714	      1.19964337	     69.37541527
      1.45416670	    -23.27440125	     -2.30469197	      0.66080793	     -0.93694320	      1.18640778	     -0.09106750	     44.82824776	      5.60585226	      6.11698051	     41.12137192	      0.71770333	     14.54957918	    -34.02244601	     -7.49999987	     44.84246858	     -0.70560521	      7.54331406	     44.99617670	      0.78533143	     27.12530749	     -7.13084456	     -7.49999987	    -11.51196344	      1.12149304	     -2.60701390	    -13.44064835	    -24.40984633	     71.50145330	     12.88691228	     27.57027322	    -25.48868373	    -21.65239055	      3.65934586	      1.21405469	     69.39560875
      1.45833330	    -23.15933603	     -2.44808579	      1.02395845	     -0.93052634	      1.19000205	     -0.08726305	     44.71643544	      5.53610547	      5.76511031	     41.37854886	      0.72219192	     14.56380306	    -33.99983229	     -7.49999987	     44.93005766	     -0.69837048	      7.74380638	     45.40613443	      0.79248655	     27.11240624	     -7.08295066	     -7.49999987	    -12.10761310	      1.45193712	     -2.61159859	    -13.14204320	    -24.21627757	     71.58511098	     13.28377203	     27.56284268	    -24.42853505	    -21.59937555	      3.87194583	      1.22128613	     69.39591776
      1.46250000	    -23.01841624	     -2.73226608	      1.37156123	     -0.93010560	      1.18575912	     -0.08666363	     44.62754056	      5.57452315	      5.03586602	     41.63963333	      0.72674870	     14.80518904	    -34.02520820	     -7.49999987	     45.17977021	     -0.86486733	      7.86488746	     46.34288454	      0.80883592	     27.45380037	     -6.81366541	     -7.49999987	    -12.84060764	      1.80914973	     -2.52714722	    -13.18191037	    -24.29836390	     71.13549164	     14.12083579	     28.65807815	    -24.07084593	    -21.73447123	      4.63607821	      1.21387100	     68.97884212
